# xmcd CD database file
#
# Track frame offsets:
#	183
#	11103
#	23525
#	35058
#	46303
#	54755
#	65013
#	78058
#	96113
#	109228
#	123293
#	139645
#	152578
#	168025
#	177445
#	192875
#	207748
#	222413
#	232920
#	247988
#	261485
#	274890
#
# Disc length: 3855 seconds
#
# Revision: 6
# Processed by: cddbd v1.5.1PL2 Copyright (c) Steve Scherf et al.
# Submitted via: CDex 1.51
#
DISCID=2f0f0d16
DTITLE=Various Artist - The Giants of Jazz - Vol. 1
DYEAR=1989
DGENRE=Jazz
TTITLE0=Our Love Is Here To Stay - by Cleo Laine and Johnny Dankworth
TTITLE1=Honey, Honey - by Ray Charles
TTITLE2=What A Difference A Day Makes - by Dinah Washington
TTITLE3=St. Louis Blues - by Jimmy Witherspoon
TTITLE4=Cuanta Le Gusto - by Peggy Lee and Bing Crosby
TTITLE5=When My Dreamboat Comes Home - by Jimmy Rushing
TTITLE6=T'aint What You Do - by Ella Fitzgerald
TTITLE7=Wednesday Evenin' Blues - by John Lee Hooker
TTITLE8=Tenderly - by Sarah Vaughan
TTITLE9=Gulity - by Mel Torme
TTITLE10=Ain't Misbehavin' - by Fats Waller
TTITLE11=Heebie Jeebies - by Louis Armstrong
TTITLE12=Lover Man - by Billie Holiday
TTITLE13=Coffee House Blues - by Lightnin' Hopkins
TTITLE14=See See Rider Blues - by Ma Rainey
TTITLE15=Devil Is A Woman - by Herb Jeffries
TTITLE16=Mean Old Bed Bug Blues - by Bessie Smith
TTITLE17=Bluetail Fly - by Leadbelly
TTITLE18=Do Nothin' Till Hear From Me - by Al Hibbler
TTITLE19=I'm In The Mood For Love - by King Pleasure
TTITLE20=My Man - by Billie Holiday
TTITLE21=Me And The Blues - by Mildred Baily
EXTD=YEAR: 1989
EXTT0=
EXTT1=
EXTT2=
EXTT3=
EXTT4=
EXTT5=
EXTT6=
EXTT7=
EXTT8=
EXTT9=
EXTT10=
EXTT11=
EXTT12=
EXTT13=
EXTT14=
EXTT15=
EXTT16=
EXTT17=
EXTT18=
EXTT19=
EXTT20=
EXTT21=
PLAYORDER=
